  0
SECTION
  2
ENTITIES
999
DXF created from EnergyPlus
999
Program Version,EnergyPlus, Version 25.1.0-68a4a7c774, YMD=2026.08.11 19:45
999
Polygon Action,TRIANGULATE3DFACE
999
Color Scheme,Default
999
Text - True North
  0
TEXT
  8
1
  6
Continuous
 62
  3
 10
      -11.00000
 20
        3.00000
 30
        0.10000
 40
 .25
  1
True North
 41
 0.0
  7
MONOTXT
210
0.0
220
0.0
230
1.0
999
Text - Building Title
  0
TEXT
  8
1
  6
Continuous
 62
  3
 10
      -14.00000
 20
       -1.00000
 30
        0.10000
 40
 .4
  1
Building - Hybrid
 41
 0.0
  7
MONOTXT
210
0.0
220
0.0
230
1.0
999
North Arrow Stem
  0
3DFACE
  8
1
 62
  3
 10
      -10.00000
 20
        3.00000
 30
        0.10000
 11
      -10.00000
 21
        3.00000
 31
        0.00000
 12
      -10.00000
 22
        0.00000
 32
        0.00000
 13
      -10.00000
 23
        0.00000
 33
        0.10000
999
North Arrow Head 1
  0
3DFACE
  8
1
 62
  3
 10
      -10.00000
 20
        3.00000
 30
        0.10000
 11
      -10.00000
 21
        3.00000
 31
        0.00000
 12
      -10.50000
 22
        2.13397
 32
        0.00000
 13
      -10.50000
 23
        2.13397
 33
        0.10000
999
North Arrow Head 2
  0
3DFACE
  8
1
 62
  3
 10
      -10.00000
 20
        3.00000
 30
        0.10000
 11
      -10.00000
 21
        3.00000
 31
        0.00000
 12
       -9.50000
 22
        2.13397
 32
        0.00000
 13
       -9.50000
 23
        2.13397
 33
        0.10000
999
North Arrow Side 1
  0
3DFACE
  8
1
 62
  3
 10
      -10.50000
 20
        4.50000
 30
        0.10000
 11
      -10.50000
 21
        4.50000
 31
        0.00000
 12
      -10.50000
 22
        3.50000
 32
        0.00000
 13
      -10.50000
 23
        3.50000
 33
        0.10000
999
North Arrow Side 2
  0
3DFACE
  8
1
 62
  3
 10
      -10.50000
 20
        4.50000
 30
        0.10000
 11
      -10.50000
 21
        4.50000
 31
        0.00000
 12
       -9.50000
 22
        3.50000
 32
        0.00000
 13
       -9.50000
 23
        3.50000
 33
        0.10000
999
North Arrow Side 3
  0
3DFACE
  8
1
 62
  3
 10
       -9.50000
 20
        4.50000
 30
        0.10000
 11
       -9.50000
 21
        4.50000
 31
        0.00000
 12
       -9.50000
 22
        3.50000
 32
        0.00000
 13
       -9.50000
 23
        3.50000
 33
        0.10000
999
Zone Names
999
Zone=1:HYBRID_ZONE
999
Zone=2:HYBRID_PLENUM
999
HYBRID ZONE:NORTH
  0
3DFACE
  8
HYBRID_ZONE
 62
 43
 10
        0.00000
 20
        0.00000
 30
        0.50000
 11
      158.00000
 21
        0.00000
 31
        0.50000
 12
      158.00000
 22
        0.00000
 32
        4.57200
 13
        0.00000
 23
        0.00000
 33
        4.57200
999
HYBRID ZONE:EAST
  0
3DFACE
  8
HYBRID_ZONE
 62
 43
 10
      158.00000
 20
        0.00000
 30
        0.50000
 11
      158.00000
 21
      158.00000
 31
        0.50000
 12
      158.00000
 22
      158.00000
 32
        4.57200
 13
      158.00000
 23
        0.00000
 33
        4.57200
999
HYBRID ZONE:SOUTH
  0
3DFACE
  8
HYBRID_ZONE
 62
 43
 10
      158.00000
 20
      158.00000
 30
        0.50000
 11
        0.00000
 21
      158.00000
 31
        0.50000
 12
        0.00000
 22
      158.00000
 32
        4.57200
 13
      158.00000
 23
      158.00000
 33
        4.57200
999
HYBRID ZONE:WEST
  0
3DFACE
  8
HYBRID_ZONE
 62
 43
 10
        0.00000
 20
      158.00000
 30
        0.50000
 11
        0.00000
 21
        0.00000
 31
        0.50000
 12
        0.00000
 22
        0.00000
 32
        4.57200
 13
        0.00000
 23
      158.00000
 33
        4.57200
999
HYBRID ZONE:FLOOR
  0
3DFACE
  8
HYBRID_ZONE
 62
  8
 10
        0.00000
 20
        0.00000
 30
        0.50000
 11
        0.00000
 21
      158.00000
 31
        0.50000
 12
      158.00000
 22
      158.00000
 32
        0.50000
 13
      158.00000
 23
        0.00000
 33
        0.50000
999
HYBRID ZONE:ROOF
  0
3DFACE
  8
HYBRID_ZONE
 62
 15
 10
        0.00000
 20
        0.00000
 30
        4.57200
 11
      158.00000
 21
        0.00000
 31
        4.57200
 12
      158.00000
 22
      158.00000
 32
        4.57200
 13
        0.00000
 23
      158.00000
 33
        4.57200
999
HYBRID PLENUM:PNORTH WALL
  0
3DFACE
  8
HYBRID_PLENUM
 62
 43
 10
        0.00000
 20
        0.00000
 30
        0.00000
 11
      158.00000
 21
        0.00000
 31
        0.00000
 12
      158.00000
 22
        0.00000
 32
        0.50000
 13
        0.00000
 23
        0.00000
 33
        0.50000
999
HYBRID PLENUM:PEAST WALL
  0
3DFACE
  8
HYBRID_PLENUM
 62
 43
 10
      158.00000
 20
        0.00000
 30
        0.00000
 11
      158.00000
 21
      158.00000
 31
        0.00000
 12
      158.00000
 22
      158.00000
 32
        0.50000
 13
      158.00000
 23
        0.00000
 33
        0.50000
999
HYBRID PLENUM:PSOUTH WALL
  0
3DFACE
  8
HYBRID_PLENUM
 62
 43
 10
      158.00000
 20
      158.00000
 30
        0.00000
 11
        0.00000
 21
      158.00000
 31
        0.00000
 12
        0.00000
 22
      158.00000
 32
        0.50000
 13
      158.00000
 23
      158.00000
 33
        0.50000
999
HYBRID PLENUM:PWEST WALL
  0
3DFACE
  8
HYBRID_PLENUM
 62
 43
 10
        0.00000
 20
      158.00000
 30
        0.00000
 11
        0.00000
 21
        0.00000
 31
        0.00000
 12
        0.00000
 22
        0.00000
 32
        0.50000
 13
        0.00000
 23
      158.00000
 33
        0.50000
999
HYBRID PLENUM:PFLOOR
  0
3DFACE
  8
HYBRID_PLENUM
 62
  8
 10
        0.00000
 20
        0.00000
 30
        0.00000
 11
        0.00000
 21
      158.00000
 31
        0.00000
 12
      158.00000
 22
      158.00000
 32
        0.00000
 13
      158.00000
 23
        0.00000
 33
        0.00000
999
HYBRID PLENUM:PCEILING
  0
3DFACE
  8
HYBRID_PLENUM
 62
 15
 10
        0.00000
 20
      158.00000
 30
        0.50000
 11
        0.00000
 21
        0.00000
 31
        0.50000
 12
      158.00000
 22
        0.00000
 32
        0.50000
 13
      158.00000
 23
      158.00000
 33
        0.50000
  0
ENDSEC
  0
EOF
