<?xml version="1.0"?>
<svg width="250mm" height="200mm" viewBox="0 0 2500 1500"
     xmlns="http://www.w3.org/2000/svg"
     xmlns:xlink="http://www.w3.org/1999/xlink"
     xmlns:ev="http://www.w3.org/2001/xml-events">
<g font-family="Verdana" font-size="8">
  <line x1="800" y1="110" x2="800" y2="30" style="stroke:silver;"/>
  <rect x="1450" y="20" width="200" height="20" style="fill:chartreuse; stroke: black;"/>1
  <text x="1452" y="33">DATA CENTER ZONE</text>
  <rect x="200" y="180" width="200" height="20" style="fill:snow; stroke: black;"/>6
  <text x="202" y="193">OutdoorAir:Node</text>
  <rect x="450" y="100" width="200" height="20" style="fill:powderblue; stroke: black;"/>7
  <text x="452" y="113">AIR COOLED CHILLER</text>
  <rect x="950" y="20" width="200" height="20" style="fill:wheat; stroke: black;"/>10
  <text x="952" y="33">DATA CENTER SUPPLY AIR SPLITTER</text>
  <rect x="1200" y="20" width="200" height="20" style="fill:wheat; stroke: black;"/>11
  <text x="1202" y="33">DATA CENTER ZONE VAV TERMINAL</text>
  <rect x="1700" y="20" width="200" height="20" style="fill:wheat; stroke: black;"/>12
  <text x="1702" y="33">DATA CENTER RETURN AIR MIXER</text>
  <rect x="200" y="20" width="200" height="20" style="fill:lawngreen; stroke: black;"/>13
  <text x="202" y="33">DATA CENTER OAM BOX</text>
  <rect x="700" y="100" width="200" height="20" style="fill:skyblue; stroke: black;"/>14
  <text x="702" y="113">DATA CENTER CW COOLING COIL</text>
  <rect x="700" y="20" width="200" height="20" style="fill:skyblue; stroke: black;"/>15
  <text x="702" y="33">DATA CENTER CW COOLING COIL</text>
  <rect x="450" y="20" width="200" height="20" style="fill:silver; stroke: black;"/>17
  <text x="452" y="33">DATA CENTER SUPPLY FAN</text>
  <rect x="200" y="100" width="200" height="20" style="fill:springgreen; stroke: black;"/>19
  <text x="202" y="113">CW CIRC PUMP</text>
  <line x1="650" y1="110" x2="700" y2="110" style="stroke:black;"/>
  <line x1="1150" y1="30" x2="1200" y2="30" style="stroke:black;"/>
  <line x1="1400" y1="30" x2="1450" y2="30" style="stroke:black;"/>
  <line x1="400" y1="30" x2="450" y2="30" style="stroke:black;"/>
  <line x1="900" y1="30" x2="950" y2="30" style="stroke:black;"/>
  <line x1="650" y1="30" x2="700" y2="30" style="stroke:black;"/>
  <line x1="400" y1="110" x2="450" y2="110" style="stroke:black;"/>
  <line x1="1650" y1="30" x2="1700" y2="30" style="stroke:black;"/>
  <line x1="200" y1="30" x2="175" y2="30" style="stroke:black;"/>
  <line x1="175" y1="30" x2="175" y2="0" style="stroke:black;"/>
  <line x1="175" y1="0" x2="1925" y2="0" style="stroke:black;"/>
  <line x1="1925" y1="0" x2="1925" y2="30" style="stroke:black;"/>
  <line x1="1925" y1="30" x2="1900" y2="30" style="stroke:black;"/>
  <line x1="200" y1="110" x2="175" y2="110" style="stroke:black;"/>
  <line x1="175" y1="110" x2="175" y2="80" style="stroke:black;"/>
  <line x1="175" y1="80" x2="925" y2="80" style="stroke:black;"/>
  <line x1="925" y1="80" x2="925" y2="110" style="stroke:black;"/>
  <line x1="925" y1="110" x2="900" y2="110" style="stroke:black;"/>
  <text x="200" y="240">Unused Non-Parent Objects:</text>
  <text x="220" y="260">DATACENTER_IT_EQUIPMENT</text>
  <text x="220" y="280">CHILLED WATER LOOP SETPOINT MANAGER</text>
  <text x="220" y="300">DATA CENTER SYSTEM SETPOINT MANAGER</text>
  <text x="220" y="320">DATA CENTER MIXED AIR SP MANAGER</text>
  <text x="220" y="340">DATA CENTER CW COIL CONTROLLER</text>
  <text x="220" y="360">DATA CENTER OA CONTROLLER</text>
  <text x="200" y="400">
The following are not supported: objects related to controls or ZoneHVAC:IdealLoadsAirSystem</text>
</g>
</svg>
